<svg id="Ebene_1" data-name="Ebene 1" xmlns="http://www.w3.org/2000/svg" viewBox="0 0 470.99 430.51"><defs><style>.cls-1{fill:#d1f5ff;}.cls-2{fill:#fff;}.cls-2,.cls-3{stroke:#000;stroke-miterlimit:10;}.cls-3{fill:none;stroke-width:14px;}</style></defs><rect class="cls-1" x="343.69" y="212.76" width="304.41" height="304.41" transform="translate(145.29 -393.47) rotate(45)"/><path class="cls-2" d="M425.71,386" transform="translate(-258.03 -149.71)"/><path d="M618.45,268.07H594.54v24.69H582.09V232.34h39.35v10.08h-26.9V258h23.91Z" transform="translate(-258.03 -149.71)"/><path d="M643.6,292.76H631.15V232.34H643.6Z" transform="translate(-258.03 -149.71)"/><path d="M701.12,242.42H682.61v50.34H670.16V242.42H651.9V232.34h49.22Z" transform="translate(-258.03 -149.71)"/><path d="M598.36,334.34l15.53,43.82,15.43-43.82h16.36v60.42h-12.5V378.25l1.25-28.52-16.31,45h-8.55l-16.27-45,1.24,28.48v16.51H582.09V334.34Z" transform="translate(-258.03 -149.71)"/><path d="M671.49,394.76H659V334.34h12.45Z" transform="translate(-258.03 -149.71)"/><path d="M729,344.42H710.5v50.34H698.05V344.42H679.79V334.34H729Z" transform="translate(-258.03 -149.71)"/><path d="M629.91,489.13a21.68,21.68,0,0,1-9.51,6.24,39.77,39.77,0,0,1-13.61,2.22A27,27,0,0,1,593,494.17a22.78,22.78,0,0,1-9.13-9.94,34.81,34.81,0,0,1-3.3-15.31v-4.11a37.22,37.22,0,0,1,3-15.67,22.59,22.59,0,0,1,8.8-10.13,25.32,25.32,0,0,1,13.47-3.5q10.74,0,16.81,5.12t7.18,14.92H617.79c-.56-3.46-1.78-6-3.68-7.59s-4.5-2.41-7.82-2.41a11,11,0,0,0-9.67,4.77q-3.32,4.77-3.36,14.2v3.86q0,9.5,3.61,14.36t10.58,4.85q7,0,10-3V474.19H606.12V465h23.79Z" transform="translate(-258.03 -149.71)"/><path d="M654.93,496.76H642.48V436.34h12.45Z" transform="translate(-258.03 -149.71)"/><path d="M712.45,446.42H693.94v50.34H681.49V446.42H663.23V436.34h49.22Z" transform="translate(-258.03 -149.71)"/><line class="cls-3" x1="114.99" y1="351.55" x2="172.98" y2="293.56"/><line class="cls-3" x1="180.15" y1="296.38" x2="122.4" y2="238.63"/><line class="cls-3" x1="60.17" y1="293.86" x2="122.4" y2="231.63"/><line class="cls-3" x1="4.75" y1="232.52" x2="62" y2="285.5"/><line class="cls-3" x1="119.03" y1="235.01" x2="209.52" y2="144.52"/><circle class="cls-3" cx="243.07" cy="110.97" r="32.01"/><line class="cls-3" x1="125.01" y1="205.22" x2="120.52" y2="145.92"/><line class="cls-3" x1="126.63" y1="152.54" x2="205.1" y2="146.54"/><line class="cls-3" x1="256.47" y1="201.41" x2="208.09" y2="153.04"/><line class="cls-3" x1="254.74" y1="193.38" x2="303.08" y2="145.04"/></svg>